<svg id="playstation-wordmark" xmlns="http://www.w3.org/2000/svg" width="172.445" height="32" viewBox="0 0 172.445 32">
  <path id="Shape" d="M45.3,32l3.955-9.29L42.361,5.4h4.382l4.615,12.966L56.319,5.4h3.489L48.42,32ZM129.557,21.91c-1.076-.832-2.393-2.579-2.393-7.645s1.318-6.814,2.393-7.644a12.157,12.157,0,0,1,11.236,0c1.077.83,2.4,2.579,2.4,7.644s-1.324,6.813-2.4,7.645a12.122,12.122,0,0,1-11.236,0Zm39.21,1.369a3.748,3.748,0,0,1-2.595-1.03,3.418,3.418,0,0,1-1.08-2.495,3.612,3.612,0,0,1,3.675-3.525,3.743,3.743,0,0,1,2.6,1.031,3.43,3.43,0,0,1,0,4.989,3.752,3.752,0,0,1-2.595,1.031ZM62.644,23V20.809s3.982.15,4.811.15c1.838,0,2.755-.376,3.446-1.086a7.024,7.024,0,0,0,.776-2.986,8.943,8.943,0,0,0-.408-2.712,2.242,2.242,0,0,0-1.885-1.2c-.687-.057-1.747-.19-2.987-.245a4.878,4.878,0,0,1-3.441-1.574c-.549-.626-1.284-1.569-1.284-4.453s.779-4.507,1.56-5.258a5.371,5.371,0,0,1,2.8-1.236,22.233,22.233,0,0,1,2.66-.176l5.27.148V2.364s-3.843-.148-4.67-.148c-1.838,0-2.389.378-3.077,1.086a4.135,4.135,0,0,0-.724,2.257,8.225,8.225,0,0,0,.357,2.615,2.235,2.235,0,0,0,1.882,1.21c.684.05,1.746.184,2.984.238A4.84,4.84,0,0,1,74.156,11.2c.553.627,1.29,1.949,1.29,4.831s-.785,4.952-1.561,5.705a5.366,5.366,0,0,1-2.8,1.231,22.081,22.081,0,0,1-2.662.18Zm56.876.138V5.4h3.763V23.133Zm-11.083-1.839c-.091-.545-.179-2.1-.179-2.1V2.217h3.765V5.4h4.24V7.572h-4.24v10a21.336,21.336,0,0,0,.134,2.3c.137,1.048.923,1.088,1.562,1.088s1.7-.073,1.7-.073V23.06l-3.9.073C109.353,23.133,108.532,21.839,108.437,21.294Zm-28.831,0c-.094-.545-.184-2.1-.184-2.1V2.217h3.763V5.4h4.252V7.572H83.186v10a20.26,20.26,0,0,0,.141,2.3c.132,1.048.915,1.088,1.562,1.088s1.694-.073,1.694-.073V23.06l-3.9.073C80.526,23.133,79.7,21.839,79.607,21.294ZM18.566,23.133V0h3.765V23.133ZM0,23.133V0H8.216a14.279,14.279,0,0,1,4.5.708c1.94.86,2.89,3.391,2.89,5.9,0,2.761-.4,4.824-1.974,6.359C12.35,14.22,9.365,14.1,9.365,14.1H6.057V12.047h2.3a2.863,2.863,0,0,0,2.66-1.255,9.831,9.831,0,0,0,.5-3.762A6.53,6.53,0,0,0,10.65,3.3c-.868-1.086-3.4-1.086-3.4-1.086H3.766V23.133Zm158.175-.02V11.255a3.809,3.809,0,0,0-.837-2.6,3.558,3.558,0,0,0-2.654-.921l-3.692.149V23.113h-3.733V5.541l8.433-.145s2.828-.115,4.406,1.085c1.107.84,1.846,2.176,1.846,4.476V23.113Zm-66.436-.648c-1.606-.626-2.483-2.344-2.483-4.728,0-2.3.741-3.638,1.838-4.477,1.579-1.2,4.411-1.084,4.411-1.084h2.3v2.043H96.512a3.183,3.183,0,0,0-2.51.842,3.19,3.19,0,0,0-.8,2.382c0,1.592.324,2.3,1.1,2.844a6.321,6.321,0,0,0,3.308.587l2.481-.145V11.255a3.786,3.786,0,0,0-.832-2.6,3.567,3.567,0,0,0-2.651-.921l-4.964.149V5.541L97.621,5.4s2.827-.116,4.406,1.085c1.1.841,1.84,2.176,1.84,4.476V22.943l-7.215.149h-.012A17.791,17.791,0,0,1,91.739,22.465Zm-63.485,0c-1.6-.626-2.479-2.344-2.479-4.728,0-2.3.734-3.638,1.837-4.477,1.58-1.2,4.407-1.084,4.407-1.084h2.3v2.043H33.031a3.2,3.2,0,0,0-2.516.842,3.2,3.2,0,0,0-.792,2.382c0,1.592.322,2.3,1.1,2.844a6.312,6.312,0,0,0,3.3.587l2.488-.145V11.255a3.783,3.783,0,0,0-.841-2.6,3.546,3.546,0,0,0-2.651-.921l-4.965.149V5.541L34.137,5.4s2.828-.116,4.408,1.085c1.1.841,1.835,2.176,1.835,4.476V22.943l-7.214.149h-.012A17.806,17.806,0,0,1,28.254,22.465ZM119.52,3.22V0h3.763V3.22Z" fill="#6994a8"/>
  <path id="Shape-2" data-name="Shape" d="M2.737,3.556l-.03-.044a.591.591,0,0,1-.055-.136A1.645,1.645,0,0,1,2.622,3.1L2.589,2.53a.394.394,0,0,0-.241-.381A1.458,1.458,0,0,0,1.893,2.1H.734V3.556H0V0H1.971a2.3,2.3,0,0,1,.805.119A.877.877,0,0,1,3.4.992a.883.883,0,0,1-.164.544,1.022,1.022,0,0,1-.321.259.776.776,0,0,1,.251.176.733.733,0,0,1,.156.472L3.34,2.9a1.09,1.09,0,0,0,.037.269.213.213,0,0,0,.124.156h0l.055.023v.209Z" transform="translate(167.111 17.778)" fill="#6994a8"/>
</svg>
