<svg xmlns="http://www.w3.org/2000/svg" width="181.418" height="31.647" viewBox="0 0 181.418 31.647">
  <g id="BlackBerry" transform="translate(-0.52 -0.302)">
    <path id="Fill_2" data-name="Fill 2" d="M3.267,2.985H2.826V0h.693l.843,2.2h.014L5.207,0h.685V2.983H5.452V.5H5.439l-.93,2.489h-.3L3.283.5H3.267V2.984Zm-1.9,0H.924V.32H0V0H2.288V.32H1.364V2.983Z" transform="translate(176.046 22.754)" fill="#6994a8"/>
    <path id="Fill_3" data-name="Fill 3" d="M11.1,10.573A3.6,3.6,0,0,1,7.764,12.7,3.6,3.6,0,0,1,4.125,8.914c0-2.668,1.8-5.067,4.444-5.067a3.372,3.372,0,0,1,3.587,2.505h4.2C16.6,4.789,15.358,0,8.729,0A8.757,8.757,0,0,0,0,9.047c0,4.235,2.648,7.5,7.555,7.5a7.694,7.694,0,0,0,7.97-5.973H11.1" transform="translate(77.729 9.511)" fill="#6994a8"/>
    <path id="Fill_4" data-name="Fill 4" d="M3.94,16.286a9.479,9.479,0,0,1,.278-1.681C4.435,13.633,7.39,0,7.39,0H3.459L.2,15.035A8.542,8.542,0,0,0,0,16.843c0,3.294,2.549,4.263,4.6,4.263a9.7,9.7,0,0,0,1.569-.143c.072-.326.687-3.161.714-3.287a10.04,10.04,0,0,1-1.021.044c-1.461,0-1.921-.621-1.921-1.435" transform="translate(52.741 4.968)" fill="#6994a8"/>
    <path id="Fill_5" data-name="Fill 5" d="M18.609,4.623H13.125L6.084,10.97,8.455,0H4.5L0,20.806H3.962l1.092-5.058L7.49,13.816l3.364,6.99h4.4l-4.773-9.363,8.124-6.82" transform="translate(93.906 4.936)" fill="#6994a8"/>
    <path id="Fill_6" data-name="Fill 6" d="M8.017,20.806H5.759a5.874,5.874,0,0,1-4.73-1.96,5.2,5.2,0,0,1-.87-4.471C.488,12.9,3.248.128,3.276,0h7.5A7.54,7.54,0,0,1,16.2,1.739a4.384,4.384,0,0,1,1.347,3.115,5.518,5.518,0,0,1-4.265,5.264l-.035.011a4.418,4.418,0,0,1,2.924,4.315,5.736,5.736,0,0,1-2.216,4.478A9.366,9.366,0,0,1,8.017,20.806ZM4.829,11.9,3.74,16.934H7.856c2.488,0,4.034-1.079,4.034-2.816,0-.828-.446-2.217-3.431-2.217H4.829ZM6.57,3.85h0l-.91,4.2H9.836c2.347,0,3.4-1.164,3.4-2.317,0-1.18-.994-1.885-2.66-1.885h-4Z" transform="translate(34.913 4.939)" fill="#6994a8"/>
    <path id="Fill_7" data-name="Fill 7" d="M8.019,20.806H5.757A5.871,5.871,0,0,1,1.036,18.85a5.21,5.21,0,0,1-.879-4.476C.472,12.962,2.986,1.333,3.272.012l0-.012h7.493a7.552,7.552,0,0,1,5.427,1.739,4.38,4.38,0,0,1,1.35,3.115,5.515,5.515,0,0,1-4.271,5.265l-.033.01a4.42,4.42,0,0,1,2.927,4.315,5.736,5.736,0,0,1-2.216,4.478A9.364,9.364,0,0,1,8.019,20.806ZM4.83,11.9,3.743,16.934h4.11c2.489,0,4.035-1.079,4.035-2.816,0-.828-.445-2.217-3.428-2.217H4.83ZM6.568,3.85l-.9,4.2H9.837c2.346,0,3.4-1.164,3.4-2.317,0-1.18-.993-1.885-2.657-1.885Z" transform="translate(110.556 4.939)" fill="#6994a8"/>
    <path id="Fill_8" data-name="Fill 8" d="M9.941,0C5.75,0,2.9,2.485,1.933,7.144,1.527,9.149,0,16.191,0,16.191H3.932s1.445-6.7,1.9-8.8c.6-2.751,2.058-3.692,4.019-3.692A6.95,6.95,0,0,1,11.1,3.8c.111-.562.655-3.047.786-3.657A14.455,14.455,0,0,0,9.941,0" transform="translate(145.337 9.568)" fill="#6994a8"/>
    <path id="Fill_9" data-name="Fill 9" d="M13.927,22.392,27.113.01H22.87L16.81,10.543,15.391,0H10.852C5.656,0,2.959,2.381,2,6.932,1.522,9.2,0,16.2,0,16.2H3.93S5.372,9.554,5.95,6.876a3.541,3.541,0,0,1,4.565-2.963l.83-3.821c.61,3.629,2.485,15.225,2.485,15.225L9.717,22.392h4.211" transform="translate(154.726 9.558)" fill="#6994a8"/>
    <path id="Fill_10" data-name="Fill 10" d="M5.541,16.547a5.844,5.844,0,0,1-4.1-1.471A4.526,4.526,0,0,1,0,11.8C0,8.739,2.365,7.036,7.669,6.278c2.83-.407,4.307-.664,4.307-1.627,0-.768-.929-1.265-2.368-1.265a4.11,4.11,0,0,0-3.625,1.72H1.543l.018-.042C2.368,3.173,4.505,0,9.761,0,12.2,0,14.008.638,15,1.846a4.628,4.628,0,0,1,.739,3.968c-.353,1.738-1.057,4.931-1.343,6.2a9.031,9.031,0,0,0-.048,4.194H10.276l-.017-.206c-.039-.469-.084-1-.094-1.372l-.028.029A6.288,6.288,0,0,1,5.541,16.547Zm5.653-7.786c-.161.022-.8.118-1.538.23H9.642c-.813.123-1.735.262-2.192.328-2.784.418-3.369,1.326-3.369,2.015,0,.976.915,1.657,2.225,1.657a4.559,4.559,0,0,0,4.648-3.216c.04-.167.086-.363.13-.551C11.125,9.054,11.163,8.889,11.194,8.761Z" transform="translate(60.579 9.529)" fill="#6994a8"/>
    <path id="Fill_11" data-name="Fill 11" d="M7.615,16.547a7.467,7.467,0,0,1-5.632-2.2A8.044,8.044,0,0,1,0,8.722,8.764,8.764,0,0,1,2.493,2.584,8.381,8.381,0,0,1,8.543,0C13.9,0,16.3,3.644,16.3,7.256a10.868,10.868,0,0,1-.316,2.375l-.019.084H3.977a3.264,3.264,0,0,0,.87,2.179,3.628,3.628,0,0,0,2.831,1.146,3.533,3.533,0,0,0,3.233-1.65H15.4A7.822,7.822,0,0,1,7.615,16.547Zm.97-12.955A4.234,4.234,0,0,0,4.564,6.5h7.574a2.459,2.459,0,0,0-.659-1.855A3.734,3.734,0,0,0,8.585,3.592Z" transform="translate(128.641 9.511)" fill="#6994a8"/>
    <path id="Fill_12" data-name="Fill 12" d="M8.257,2.265c0-1-.614-2.265-3.18-2.265H1.118L0,5.2H4.115c3.224,0,4.142-1.523,4.142-2.935" transform="translate(1.952 0.302)" fill="#6994a8"/>
    <path id="Fill_13" data-name="Fill 13" d="M8.254,2.265c0-1-.61-2.265-3.179-2.265H1.123L0,5.2H4.117c3.223,0,4.137-1.523,4.137-2.935" transform="translate(12.604 0.302)" fill="#6994a8"/>
    <path id="Fill_14" data-name="Fill 14" d="M8.26,2.259C8.26,1.258,7.647,0,5.078,0H1.125L0,5.191H4.125C7.34,5.191,8.26,3.67,8.26,2.259" transform="translate(0.52 8.132)" fill="#6994a8"/>
    <path id="Fill_15" data-name="Fill 15" d="M8.256,2.259C8.256,1.258,7.645,0,5.08,0H1.123L0,5.191H4.118c3.222,0,4.138-1.522,4.138-2.933" transform="translate(11.174 8.132)" fill="#6994a8"/>
    <path id="Fill_16" data-name="Fill 16" d="M8.257,2.265c0-1-.608-2.265-3.176-2.265H1.126L0,5.2H4.119c3.223,0,4.138-1.524,4.138-2.936" transform="translate(22.317 4.954)" fill="#6994a8"/>
    <path id="Fill_17" data-name="Fill 17" d="M8.256,2.265c0-1-.611-2.265-3.18-2.265H1.121L0,5.2H4.12c3.219,0,4.136-1.521,4.136-2.934" transform="translate(20.785 13.101)" fill="#6994a8"/>
    <path id="Fill_18" data-name="Fill 18" d="M8.255,2.265c0-1-.608-2.265-3.173-2.265H1.123L0,5.2H4.127c3.214,0,4.128-1.519,4.128-2.937" transform="translate(9.643 16.273)" fill="#6994a8"/>
  </g>
</svg>
