<svg xmlns="http://www.w3.org/2000/svg" width="124" height="28" viewBox="0 0 124 28">
  <g id="tiktok-icon-white-1" transform="translate(-0.481)">
    <path id="Shape" d="M10.841,1.723h0A9.517,9.517,0,0,0,10.994.317,8.615,8.615,0,0,1,10.841,1.723ZM.158,1.717A8.722,8.722,0,0,1,0,.047V.03A9.4,9.4,0,0,0,.16,1.716Z" transform="translate(81.481 16)" fill="none"/>
    <path id="Shape-2" data-name="Shape" d="M75.162,16.6A11.4,11.4,0,1,1,86.56,28,11.4,11.4,0,0,1,75.162,16.6ZM102,27.884,102.032.023h6.493V13.1l6.593-6.682h7.646l-7.995,8.1L124,27.875h-7.014l-6.365-9.135-2.06,1.885v7.259Zm-40.4,0V5.776h-6.71V0H75.6L73.69,5.776H68.27V27.884Zm-30.308,0L31.315.023h6.5V13.1L44.4,6.417H52.05l-8,8.1,9.221,13.359H46.258L39.893,18.74l-2.04,1.885v7.259Zm-9.305,0V8.895h6.538V27.884Zm-15.279,0V5.776H0V0H20.713L18.8,5.776H13.37V27.884ZM97.959,16.6v0ZM22.936,5.627a3.291,3.291,0,0,1-.946-2.313,3.227,3.227,0,1,1,6.454,0,3.249,3.249,0,0,1-3.225,3.273A3.206,3.206,0,0,1,22.936,5.627Z" transform="translate(0.481)" fill="#6994a8"/>
  </g>
</svg>
