<svg xmlns="http://www.w3.org/2000/svg" width="241.999" height="25" viewBox="0 0 241.999 25">
  <g id="SENNHEISER_Basic_logo" transform="translate(-0.616 0)">
    <path id="Fill_1" data-name="Fill 1" d="M36,25H17.095a8.134,8.134,0,0,0,2.18-2.4H33.654V5.886H36V25ZM12.133,25H0V20.162H3.787a6.389,6.389,0,0,0,5.6-3.112L17.5,3.451C19.563,0,21.557,0,23.865,0H36V4.8H32.213a6.352,6.352,0,0,0-5.6,3.146l-8.079,13.6C16.438,25,14.443,25,12.133,25ZM2.346,19.113H0V0H18.9a8.87,8.87,0,0,0-2.179,2.368H2.346V19.112Z" transform="translate(0.616)" fill="#6994a8"/>
    <path id="Fill_2" data-name="Fill 2" d="M131.962,15h-6.637V0h6.637V15Zm48.972,0h-6.6V0h13.776a4.6,4.6,0,0,1,2.753,1.005,4.448,4.448,0,0,1,1.671,3.081c.193,2.006-.771,3.473-2.948,4.485L193,15h-5.966l-3.285-5.966h-2.814V15Zm0-11.967V6.065h3.855a1.549,1.549,0,0,0,1.541-1.516,1.53,1.53,0,0,0-1.541-1.516h-3.855ZM88.121,15H81.449V0h6.672V5.7h5.261V0h6.637V15H93.381V9.329h-5.26V15ZM62.244,15H59.092V0H66l6.268,9.329V0h3.152V15H68.512L62.244,5.7V15ZM40.557,15H37.44V0h6.9l6.269,9.329V0h3.151V15H46.826L40.557,5.7V15Zm127.907,0H155.023V0h13.441V3.164h-6.872V6.032h6.872V9h-6.872v2.8h6.872V15Zm-21.519,0h-9.887V11.933h4.391a.7.7,0,0,0,.664-.34,1.078,1.078,0,0,0-.2-1.077L137.795,5.01a3.38,3.38,0,0,1-.247-3.357A3.075,3.075,0,0,1,140.509,0H150.4V3.033H146.04a.716.716,0,0,0-.7.365,1.04,1.04,0,0,0,.226,1.053l4.124,5.538a3.412,3.412,0,0,1,.211,3.369A3.088,3.088,0,0,1,146.945,15Zm-27.184,0H106.321V0h13.441V3.164h-6.87V6.032h6.87V9h-6.87v2.8h6.87V15ZM31.742,15H18.3V0H31.742V3.164H24.87V6.032h6.872V9H24.87v2.8h6.872V15ZM9.888,15H0V11.933H4.358a.72.72,0,0,0,.7-.353,1.056,1.056,0,0,0-.226-1.064L.7,5.01A3.413,3.413,0,0,1,.493,1.641,3.088,3.088,0,0,1,3.452,0h9.854V3.033H8.95a.684.684,0,0,0-.665.356,1.048,1.048,0,0,0,.23,1.062L12.6,9.988a3.423,3.423,0,0,1,.211,3.38A3.054,3.054,0,0,1,9.888,15Z" transform="translate(49.616 5)" fill="#6994a8"/>
  </g>
</svg>
