<svg xmlns="http://www.w3.org/2000/svg" width="110" height="26" viewBox="0 0 110 26">
  <g id="redbull" transform="translate(-0.616)">
    <path id="Shape" d="M79.184,18.946v-8.5h4.823V18.9s.168,2.848,2.87,2.848S89.539,18.9,89.539,18.9V10.488H94.4v8.706S95.028,26,87,26,79.184,20.019,79.184,18.946Zm-61.8-1.031c0-.867.126-8.251,8.193-8.251s7.735,7.8,7.735,7.8V18.7H22.374A3.4,3.4,0,0,0,25.909,22a3.805,3.805,0,0,0,3.077-1.939l3.867,1.9a7.877,7.877,0,0,1-6.9,3.754C17.55,25.71,17.384,18.78,17.384,17.915Zm17.675-.536c0-5.857,4.492-7.714,7.152-7.714A9.384,9.384,0,0,1,47.2,11.438V0h4.823V25.223h-4.74v-1.9a7.047,7.047,0,0,1-5.116,2.146C38.885,25.465,35.059,23.235,35.059,17.378ZM105.3,25.223V0H110V25.223Zm-8.088,0V0h4.762V25.223Zm-37.242,0V1h8.417c5.026,0,7.386,2.906,7.386,6.13a6.473,6.473,0,0,1-2.2,4.922c2.686,1.075,4.2,2.556,4.2,6.422,0,6.661-7.43,6.745-7.43,6.745Zm-48.325,0L6.611,17.336V11.642H7.817A3.142,3.142,0,0,0,11.1,8.384c0-3.342-3.7-3.176-3.7-3.176H5.032V25.222H0V.486l6.114,0c5.821,0,10.188,1.669,10.188,7.9a6.434,6.434,0,0,1-5.781,6.725l7.028,10.114Z" transform="translate(0.616)" fill="#6994a8"/>
  </g>
</svg>
